<svg width="26" height="23" viewBox="0 0 26 23" fill="none" xmlns="http://www.w3.org/2000/svg">
<g clip-path="url(#clip0_1026_5514)">
<path d="M16.7272 9.67673L18.7773 8.49328L20.9962 7.21243L19.7154 4.99221L19.4873 4.59896L18.2632 2.47736L16.043 3.75821L17.4681 6.22621L12.0858 9.33279V5.42984V0.5H9.52286V9.22924L6.14261 7.27653L1.87354 4.81223L0.591457 7.03121L8.15079 11.3952L4.77054 13.3479L0.501465 15.8122L1.78231 18.0312L9.34165 13.6672V17.5714V22.5H11.9046V13.772L15.2848 15.7235L19.5539 18.189L20.836 15.9688L13.3321 11.6368L16.7272 9.67673Z" fill="white"/>
<path d="M22.8049 1.5108C23.748 1.17795 24.7046 1.53176 25.21 2.40702C25.7894 3.40926 25.4812 4.58532 24.4149 5.20171C23.3979 5.78974 22.3475 5.52716 21.741 4.67162C20.9853 3.60651 21.4723 1.98048 22.8049 1.5108Z" fill="#940FFB"/>
</g>
<defs>
<clipPath id="clip0_1026_5514">
<rect width="24.9969" height="22" fill="white" transform="translate(0.501587 0.5)"/>
</clipPath>
</defs>
</svg>
