<svg width="26" height="23" viewBox="0 0 26 23" fill="none" xmlns="http://www.w3.org/2000/svg">
<path d="M15.3241 8.0704C15.5778 9.54162 15.2862 11.1085 14.3826 12.4395C13.4789 13.7705 12.1323 14.6208 10.6722 14.9324C10.8169 15.7737 11.1396 16.5839 11.6293 17.3006C13.539 16.7909 15.2818 15.6201 16.4748 13.8596C17.6678 12.099 18.1085 10.0469 17.8748 8.08375C17.0312 7.89234 16.1587 7.89234 15.3241 8.0704Z" fill="white" fill-opacity="0.08"/>
<path d="M8.12149 14.9191C7.40925 14.7611 6.71259 14.4695 6.07157 14.0355C3.34057 12.1837 2.62388 8.45555 4.47571 5.72233C6.32753 2.98911 10.0557 2.27464 12.7889 4.12646C13.4299 4.56049 13.9574 5.09912 14.3692 5.7023C15.2617 5.46414 16.1898 5.37066 17.1157 5.42853C16.4881 4.09976 15.5088 2.91788 14.2067 2.03426C10.3205 -0.601027 5.01656 0.418366 2.3835 4.30453C-0.24956 8.19068 0.767608 13.4946 4.65377 16.1277C5.95583 17.0113 7.41815 17.481 8.88492 17.5722C8.48651 16.7331 8.23055 15.8361 8.12149 14.9191Z" fill="white" fill-opacity="0.08"/>
<path d="M15.324 8.07035C15.1794 7.22901 14.8566 6.41884 14.367 5.70215C12.4573 6.21185 10.7145 7.38259 9.52149 9.14316C8.32849 10.9037 7.88779 12.9559 8.1215 14.919C8.96951 15.1082 9.83978 15.1082 10.6744 14.9301C10.4207 13.4589 10.7123 11.892 11.6159 10.561C12.5196 9.22996 13.8639 8.37973 15.324 8.07035Z" fill="white" fill-opacity="0.08"/>
<path d="M21.3469 6.87322C20.0448 5.9896 18.5825 5.51997 17.1157 5.42871C17.5119 6.26782 17.7701 7.1648 17.8791 8.0818C18.5914 8.23983 19.288 8.53141 19.9291 8.96543C22.6601 10.8173 23.3767 14.5454 21.5249 17.2786C19.6731 20.0118 15.9427 20.7263 13.2117 18.8745C12.5707 18.4404 12.0432 17.9018 11.6315 17.2986C10.7389 17.5368 9.8108 17.6303 8.88489 17.5724C9.51255 18.9012 10.4919 20.083 11.7939 20.9667C15.6801 23.5997 20.9841 22.5826 23.6171 18.6964C26.2502 14.8102 25.2308 9.50628 21.3469 6.87322Z" fill="white" fill-opacity="0.08"/>
<path d="M11.6315 17.2983C11.1418 16.5816 10.8191 15.7714 10.6744 14.9301C9.83974 15.1081 8.96724 15.1081 8.12146 14.9189C8.23052 15.836 8.48648 16.7329 8.88489 17.572C9.8108 17.6299 10.7389 17.5364 11.6315 17.2983Z" fill="white" fill-opacity="0.08"/>
<path d="M14.3691 5.70238C14.8588 6.41907 15.1815 7.22925 15.3262 8.07058C16.1609 7.89252 17.0334 7.89252 17.8791 8.08171C17.7701 7.1647 17.5141 6.26772 17.1157 5.42861C16.1898 5.36852 15.2617 5.46423 14.3691 5.70238Z" fill="white" fill-opacity="0.08"/>
</svg>
