<svg width="26" height="23" viewBox="0 0 26 23" fill="none" xmlns="http://www.w3.org/2000/svg">
<path d="M15.3388 8.04854C15.5942 9.52917 15.3007 11.1061 14.3913 12.4456C13.4819 13.7852 12.1267 14.6408 10.6572 14.9544C10.8028 15.8011 11.1276 16.6165 11.6204 17.3378C13.5423 16.8248 15.2962 15.6466 16.4969 13.8747C17.6975 12.1029 18.141 10.0376 17.9058 8.06198C17.0569 7.86934 16.1788 7.86934 15.3388 8.04854Z" fill="white"/>
<path d="M8.09029 14.9411C7.37349 14.7821 6.67237 14.4886 6.02726 14.0518C3.27879 12.1882 2.55751 8.43618 4.42119 5.68547C6.28486 2.93476 10.0368 2.21572 12.7875 4.0794C13.4327 4.51619 13.9635 5.05827 14.3779 5.66531C15.2762 5.42563 16.2103 5.33155 17.1421 5.38979C16.5104 4.05252 15.5248 2.86308 14.2144 1.97381C10.3034 -0.678343 4.9655 0.347573 2.31559 4.25859C-0.334313 8.16962 0.689362 13.5075 4.60038 16.1574C5.91078 17.0467 7.38245 17.5193 8.85861 17.6112C8.45765 16.7667 8.20005 15.864 8.09029 14.9411Z" fill="white"/>
<path d="M15.3389 8.04875C15.1933 7.20204 14.8685 6.38668 14.3757 5.66541C12.4538 6.17836 10.6999 7.3566 9.49922 9.12843C8.29859 10.9003 7.85507 12.9655 8.09027 14.9412C8.9437 15.1316 9.81954 15.1316 10.6595 14.9524C10.4042 13.4718 10.6976 11.8948 11.6071 10.5553C12.5165 9.21579 13.8694 8.36011 15.3389 8.04875Z" fill="#FF4E35"/>
<path d="M21.4003 6.84365C20.0899 5.95437 18.6183 5.48173 17.1421 5.38989C17.5408 6.23437 17.8007 7.13708 17.9104 8.05996C18.6272 8.219 19.3284 8.51244 19.9735 8.94924C22.7219 10.8129 23.4432 14.5649 21.5795 17.3156C19.7159 20.0663 15.9616 20.7853 13.2132 18.9217C12.5681 18.4849 12.0372 17.9428 11.6228 17.3358C10.7246 17.5754 9.79048 17.6695 8.85864 17.6113C9.49032 18.9485 10.4759 20.138 11.7863 21.0273C15.6973 23.6772 21.0352 22.6535 23.6851 18.7425C26.335 14.8314 25.3091 9.49355 21.4003 6.84365Z" fill="#FF4E35"/>
<path d="M11.6228 17.3358C11.13 16.6146 10.8052 15.7992 10.6596 14.9525C9.8196 15.1317 8.94153 15.1317 8.09033 14.9413C8.20009 15.8642 8.45769 16.7669 8.85865 17.6114C9.79048 17.6696 10.7246 17.5755 11.6228 17.3358Z" fill="#FF4E35"/>
<path d="M14.3781 5.66518C14.8708 6.38646 15.1956 7.20182 15.3412 8.04853C16.1812 7.86933 17.0593 7.86933 17.9105 8.05973C17.8008 7.13686 17.5432 6.23414 17.1422 5.38966C16.2104 5.32918 15.2763 5.4255 14.3781 5.66518Z" fill="#FF4E35"/>
</svg>
