<svg width="26" height="23" viewBox="0 0 26 23" fill="none" xmlns="http://www.w3.org/2000/svg">
<path d="M16.8825 9.67673L18.9123 8.49328L21.1094 7.21243L19.8412 4.99221L19.6154 4.59896L18.4033 2.47736L16.2051 3.75821L17.6161 6.22621L12.2869 9.33279V5.42984V0.5H9.74933V9.22924L6.40246 7.27653L2.17554 4.81223L0.90612 7.03121L8.39081 11.3952L5.04394 13.3479L0.817017 15.8122L2.08521 18.0312L9.5699 13.6672V17.5714V22.5H12.1075V13.772L15.4544 15.7235L19.6813 18.189L20.9507 15.9688L13.521 11.6368L16.8825 9.67673Z" fill="white" fill-opacity="0.08"/>
<path d="M22.5161 0.62347C23.4498 0.290622 24.397 0.644427 24.8975 1.51969C25.4711 2.52193 25.166 3.698 24.1102 4.31438C23.1032 4.90241 22.0632 4.63983 21.4627 3.78429C20.7145 2.71918 21.1966 1.09315 22.5161 0.62347Z" fill="white" fill-opacity="0.08"/>
</svg>
