<svg width="16" height="23" viewBox="0 0 16 23" fill="none" xmlns="http://www.w3.org/2000/svg">
<path d="M12.5795 9.65063H3.42498H0.42981V12.6419V22.5H3.42498V12.6419H12.5795V22.5H15.5707V12.6419V9.65063H12.5795Z" fill="white"/>
<path d="M10.7793 2.30405C10.9994 1.21919 11.9389 0.499878 13.1495 0.499878C14.537 0.499878 15.5708 1.44324 15.5708 2.80325C15.5708 4.10037 14.6668 4.95725 13.4168 5.06338C11.8603 5.19702 10.4688 3.83701 10.7793 2.30405Z" fill="#00B0F0"/>
<path d="M0.473057 2.30405C0.693174 1.21919 1.6326 0.499878 2.84325 0.499878C4.23077 0.499878 5.26454 1.44324 5.26454 2.80325C5.26454 4.10037 4.36048 4.95725 3.11053 5.06338C1.55399 5.19702 0.162535 3.83701 0.473057 2.30405Z" fill="white"/>
</svg>
