<svg width="14" height="21" viewBox="0 0 14 21" fill="none" xmlns="http://www.w3.org/2000/svg">
<path d="M11.1786 8.80908H2.82169H0.0863037V11.5409V20.5475H2.82169V11.5409H11.1786V20.5475H13.914V11.5409V8.80908H11.1786Z" fill="white" fill-opacity="0.08"/>
<path d="M9.53823 2.09996C9.73926 1.10919 10.5972 0.452271 11.7028 0.452271C12.97 0.452271 13.9141 1.31381 13.9141 2.55586C13.9141 3.74048 13.0885 4.52304 11.947 4.61996C10.5254 4.7456 9.25464 3.49996 9.53823 2.09996Z" fill="white" fill-opacity="0.08"/>
<path d="M0.125758 2.09996C0.326784 1.10919 1.18473 0.452271 2.29037 0.452271C3.55755 0.452271 4.50165 1.31381 4.50165 2.55586C4.50165 3.74048 3.67601 4.52304 2.53448 4.61996C1.11294 4.7456 -0.157832 3.49996 0.125758 2.09996Z" fill="white" fill-opacity="0.08"/>
</svg>
