<svg width="24" height="25" viewBox="0 0 24 25" fill="none" xmlns="http://www.w3.org/2000/svg">
<path d="M21.1688 13.5456C21.2182 13.1509 21.2552 12.7561 21.2552 12.3366C21.2552 11.9172 21.2182 11.5224 21.1688 11.1276L23.7719 9.0921C24.0063 8.90705 24.068 8.57396 23.9199 8.30256L21.4526 4.03408C21.3416 3.83669 21.1318 3.72566 20.9098 3.72566C20.8358 3.72566 20.7617 3.738 20.7001 3.76267L17.6282 4.99634C16.9867 4.50287 16.2959 4.09576 15.5433 3.78735L15.0745 0.518139C15.0375 0.22206 14.7785 0 14.4701 0H9.5354C9.22698 0 8.96791 0.22206 8.9309 0.518139L8.46211 3.78735C7.70957 4.09576 7.01872 4.51521 6.37722 4.99634L3.30539 3.76267C3.23137 3.738 3.15735 3.72566 3.08334 3.72566C2.87361 3.72566 2.66389 3.83669 2.55286 4.03408L0.0855318 8.30256C-0.0748444 8.57396 -0.00082446 8.90705 0.233572 9.0921L2.8366 11.1276C2.78726 11.5224 2.75025 11.9295 2.75025 12.3366C2.75025 12.7437 2.78726 13.1509 2.8366 13.5456L0.233572 15.5812C-0.00082446 15.7662 -0.0625078 16.0993 0.0855318 16.3707L2.55286 20.6392C2.66389 20.8366 2.87361 20.9476 3.09567 20.9476C3.16969 20.9476 3.24371 20.9353 3.30539 20.9106L6.37722 19.6769C7.01872 20.1704 7.70957 20.5775 8.46211 20.8859L8.9309 24.1551C8.96791 24.4512 9.22698 24.6733 9.5354 24.6733H14.4701C14.7785 24.6733 15.0375 24.4512 15.0745 24.1551L15.5433 20.8859C16.2959 20.5775 16.9867 20.1581 17.6282 19.6769L20.7001 20.9106C20.7741 20.9353 20.8481 20.9476 20.9221 20.9476C21.1318 20.9476 21.3416 20.8366 21.4526 20.6392L23.9199 16.3707C24.068 16.0993 24.0063 15.7662 23.7719 15.5812L21.1688 13.5456ZM18.7262 11.4361C18.7755 11.8185 18.7879 12.0776 18.7879 12.3366C18.7879 12.5957 18.7632 12.8671 18.7262 13.2372L18.5535 14.6313L19.6514 15.4948L20.9838 16.5311L20.1202 18.0238L18.5535 17.3947L17.2705 16.8765L16.1602 17.7154C15.6297 18.1102 15.1239 18.4063 14.6181 18.616L13.3104 19.1465L13.113 20.5405L12.8663 22.2059H11.1392L10.9048 20.5405L10.7074 19.1465L9.39969 18.616C8.86922 18.3939 8.37575 18.1102 7.88229 17.7401L6.75965 16.8765L5.45197 17.407L3.88522 18.0362L3.02165 16.5434L4.35401 15.5072L5.45197 14.6436L5.27926 13.2495C5.24225 12.8671 5.21757 12.5834 5.21757 12.3366C5.21757 12.0899 5.24225 11.8062 5.27926 11.4361L5.45197 10.042L4.35401 9.17846L3.02165 8.14218L3.88522 6.64945L5.45197 7.27862L6.73498 7.79675L7.84528 6.95786C8.37575 6.56309 8.88155 6.26701 9.38736 6.05729L10.695 5.52681L10.8924 4.13277L11.1392 2.46733H12.854L13.0883 4.13277L13.2857 5.52681L14.5934 6.05729C15.1239 6.27935 15.6174 6.56309 16.1108 6.93319L17.2335 7.79675L18.5411 7.26628L20.1079 6.63711L20.9715 8.12984L19.6514 9.17846L18.5535 10.042L18.7262 11.4361ZM12.0027 7.40198C9.27633 7.40198 7.06807 9.61024 7.06807 12.3366C7.06807 15.063 9.27633 17.2713 12.0027 17.2713C14.7291 17.2713 16.9374 15.063 16.9374 12.3366C16.9374 9.61024 14.7291 7.40198 12.0027 7.40198ZM12.0027 14.804C10.6457 14.804 9.5354 13.6937 9.5354 12.3366C9.5354 10.9796 10.6457 9.86931 12.0027 9.86931C13.3598 9.86931 14.4701 10.9796 14.4701 12.3366C14.4701 13.6937 13.3598 14.804 12.0027 14.804Z" fill="white"/>
</svg>
